<svg width="202" height="240" viewBox="0 0 202 240" fill="none" xmlns="http://www.w3.org/2000/svg">
<path d="M119.966 74.0625H119.965L82.7267 74.0625L82.7254 74.0625C81.1445 74.0646 79.794 74.9447 78.873 76.2062C77.9513 77.4685 77.4095 79.1659 77.4082 80.9993V81V163.5C77.4081 164.226 77.6786 165 78.2594 165.492C78.8919 166.027 79.7591 166.095 80.4605 165.615C80.4606 165.615 80.4606 165.615 80.4606 165.615L101.346 151.313L122.231 165.615C122.231 165.615 122.231 165.615 122.231 165.615C122.932 166.095 123.8 166.027 124.432 165.492C125.013 165 125.283 164.226 125.283 163.5V81V80.9993C125.282 79.1659 124.74 77.4685 123.818 76.2062C122.897 74.9447 121.547 74.0646 119.966 74.0625Z" fill="#FFD900" stroke="#171518" stroke-width="1.875"/>
<path d="M101.345 112.854L88.998 121.445L93.3539 107.048L81.3672 97.96L96.4062 97.6535L101.345 83.4453L106.284 97.6535L121.323 97.96L109.336 107.048L113.692 121.445L101.345 112.854Z" fill="white"/>
</svg>
