<svg width="229" height="240" viewBox="0 0 229 240" fill="none" xmlns="http://www.w3.org/2000/svg">
<rect x="75" y="70" width="79.0175" height="94" fill="black"/>
<rect x="76.6035" y="72.2227" width="3.41116" height="89.543" fill="#E8E8E8"/>
<path d="M148.046 137.348C148.127 137.781 148.596 138.062 149.454 138.19C150.084 138.296 150.743 138.417 151.431 138.553C152.105 138.684 152.432 138.988 152.413 139.465L152.413 145.082C152.414 145.107 152.414 145.132 152.413 145.158L152.413 146.965C152.414 146.991 152.414 147.016 152.413 147.041L152.413 150.044C152.414 150.069 152.414 150.094 152.413 150.12L152.413 152.658C152.414 152.683 152.414 152.709 152.413 152.733L152.413 157.62C152.432 158.097 152.105 158.401 151.431 158.532C150.743 158.668 150.084 158.789 149.454 158.895C148.596 159.023 148.127 159.304 148.046 159.737L148.046 137.348Z" fill="#052DEA"/>
<path d="M148.048 117.375C148.129 117.81 148.594 118.092 149.444 118.221C150.068 118.327 150.721 118.449 151.403 118.585C152.07 118.717 152.395 119.023 152.376 119.502L152.376 125.091C152.377 125.116 152.377 125.141 152.376 125.167L152.376 127.034C152.377 127.06 152.377 127.086 152.376 127.11L152.376 130.03C152.377 130.054 152.377 130.08 152.376 130.105L152.376 132.7C152.377 132.725 152.377 132.751 152.376 132.775L152.376 137.638C152.395 138.117 152.07 138.423 151.403 138.555C150.721 138.691 150.068 138.813 149.444 138.919C148.594 139.048 148.129 139.33 148.048 139.765L148.048 117.375Z" fill="#00EB3E"/>
<path d="M147.996 97.4805C148.076 97.9155 148.542 98.1973 149.393 98.3259C150.018 98.4321 150.672 98.5535 151.355 98.69C152.023 98.8219 152.348 99.1272 152.329 99.6059L152.329 105.199C152.33 105.224 152.33 105.249 152.329 105.275L152.329 107.134C152.33 107.16 152.33 107.185 152.329 107.21L152.329 110.141C152.33 110.166 152.33 110.191 152.329 110.217L152.329 112.803C152.33 112.829 152.33 112.854 152.329 112.879L152.329 117.745C152.348 118.224 152.023 118.529 151.355 118.661C150.672 118.797 150.018 118.919 149.393 119.025C148.542 119.153 148.076 119.435 147.996 119.87L147.996 97.4805Z" fill="#FFD900"/>
<path d="M148.048 76.707C148.128 77.2015 148.588 77.5219 149.429 77.6681C150.046 77.7888 150.692 77.9268 151.367 78.082C152.027 78.2319 152.348 78.5789 152.33 79.123V84.8915C152.331 84.9196 152.331 84.9483 152.33 84.9776V87.6804C152.331 87.7097 152.331 87.7384 152.33 87.7665V89.9949C152.331 90.0231 152.331 90.0518 152.33 90.0811V93.535C152.331 93.5643 152.331 93.593 152.33 93.6211L152.33 98.6385C152.348 99.1825 152.027 99.5295 151.367 99.6795C150.692 99.8347 150.046 99.9727 149.429 100.093C148.588 100.24 148.128 100.56 148.048 101.054L148.048 76.707Z" fill="#E91C1C"/>
<path d="M76.6038 72.2227H148.797C148.876 72.2227 148.94 72.2867 148.94 72.3656V161.639C148.94 161.718 148.876 161.782 148.797 161.782H76.6038V72.2227Z" fill="white"/>
<path d="M106.56 84.9342C106.56 85.073 106.515 85.1847 106.424 85.2695C106.333 85.3543 106.196 85.3967 106.014 85.3967H105.688V86.0859H105.526V84.4693H106.014C106.195 84.4693 106.33 84.5117 106.421 84.5965C106.514 84.6813 106.56 84.7939 106.56 84.9342ZM106.014 85.258C106.267 85.258 106.394 85.1501 106.394 84.9342C106.394 84.8263 106.364 84.7446 106.303 84.6891C106.243 84.6335 106.147 84.6058 106.014 84.6058H105.688V85.258H106.014ZM107.094 85.0475C107.13 84.9689 107.184 84.908 107.256 84.8648C107.33 84.8217 107.42 84.8001 107.527 84.8001V84.9689H107.483C107.366 84.9689 107.272 85.0005 107.201 85.0637C107.13 85.1269 107.094 85.2325 107.094 85.3806V86.0859H106.932V84.8232H107.094V85.0475ZM108.424 86.1044C108.305 86.1044 108.198 86.0782 108.102 86.0258C108.008 85.9718 107.933 85.8963 107.878 85.7992C107.824 85.7005 107.797 85.5856 107.797 85.4546C107.797 85.3235 107.825 85.2094 107.88 85.1123C107.936 85.0136 108.011 84.9381 108.107 84.8856C108.202 84.8317 108.309 84.8047 108.428 84.8047C108.547 84.8047 108.654 84.8317 108.75 84.8856C108.847 84.9381 108.922 85.0136 108.976 85.1123C109.032 85.2094 109.06 85.3235 109.06 85.4546C109.06 85.5841 109.032 85.6982 108.976 85.7968C108.921 85.8955 108.844 85.9718 108.747 86.0258C108.65 86.0782 108.542 86.1044 108.424 86.1044ZM108.424 85.9634C108.507 85.9634 108.584 85.9449 108.655 85.9079C108.726 85.8693 108.783 85.8123 108.826 85.7367C108.871 85.6596 108.893 85.5656 108.893 85.4546C108.893 85.3436 108.871 85.2503 108.828 85.1747C108.785 85.0976 108.728 85.0406 108.657 85.0036C108.586 84.965 108.509 84.9458 108.426 84.9458C108.343 84.9458 108.265 84.965 108.195 85.0036C108.124 85.0406 108.067 85.0976 108.023 85.1747C107.982 85.2503 107.961 85.3436 107.961 85.4546C107.961 85.5656 107.982 85.6596 108.023 85.7367C108.067 85.8123 108.123 85.8693 108.192 85.9079C108.263 85.9449 108.34 85.9634 108.424 85.9634ZM109.615 85.1007C109.655 85.0159 109.718 84.9458 109.804 84.8903C109.892 84.8332 109.996 84.8047 110.117 84.8047C110.231 84.8047 110.333 84.8317 110.424 84.8856C110.517 84.9381 110.588 85.0136 110.639 85.1123C110.692 85.2094 110.718 85.3227 110.718 85.4523C110.718 85.5818 110.692 85.6959 110.639 85.7945C110.588 85.8932 110.517 85.9695 110.424 86.0235C110.333 86.0775 110.231 86.1044 110.117 86.1044C109.998 86.1044 109.895 86.0767 109.807 86.0212C109.719 85.9641 109.655 85.8932 109.615 85.8084V86.6826H109.455V84.8232H109.615V85.1007ZM110.554 85.4523C110.554 85.3474 110.533 85.2572 110.491 85.1817C110.451 85.1046 110.396 85.046 110.325 85.0059C110.254 84.9658 110.174 84.9458 110.084 84.9458C109.998 84.9458 109.918 84.9666 109.846 85.0082C109.775 85.0498 109.719 85.1092 109.677 85.1863C109.636 85.2634 109.615 85.3528 109.615 85.4546C109.615 85.5563 109.636 85.6457 109.677 85.7228C109.719 85.7999 109.775 85.8593 109.846 85.9009C109.918 85.9425 109.998 85.9634 110.084 85.9634C110.174 85.9634 110.254 85.9433 110.325 85.9032C110.396 85.8616 110.451 85.8022 110.491 85.7252C110.533 85.6465 110.554 85.5556 110.554 85.4523ZM112.259 85.3898C112.259 85.4453 112.257 85.4877 112.254 85.517H111.207C111.211 85.6126 111.234 85.6943 111.276 85.7622C111.318 85.83 111.372 85.8816 111.44 85.9171C111.508 85.951 111.582 85.968 111.662 85.968C111.767 85.968 111.855 85.9425 111.926 85.8917C111.998 85.8408 112.046 85.7722 112.069 85.6858H112.24C112.21 85.8092 112.143 85.9102 112.041 85.9888C111.941 86.0659 111.815 86.1044 111.662 86.1044C111.543 86.1044 111.437 86.0782 111.343 86.0258C111.249 85.9718 111.175 85.8963 111.121 85.7992C111.069 85.7005 111.042 85.5856 111.042 85.4546C111.042 85.3235 111.069 85.2086 111.121 85.11C111.173 85.0113 111.247 84.9357 111.341 84.8833C111.435 84.8309 111.542 84.8047 111.662 84.8047C111.782 84.8047 111.887 84.8309 111.977 84.8833C112.068 84.9357 112.137 85.0067 112.185 85.0961C112.234 85.184 112.259 85.2819 112.259 85.3898ZM112.095 85.3852C112.096 85.2911 112.077 85.211 112.037 85.1447C111.998 85.0784 111.945 85.0283 111.877 84.9943C111.809 84.9604 111.735 84.9435 111.655 84.9435C111.535 84.9435 111.432 84.982 111.348 85.0591C111.263 85.1362 111.216 85.2449 111.207 85.3852H112.095ZM112.817 85.0475C112.853 84.9689 112.907 84.908 112.979 84.8648C113.053 84.8217 113.144 84.8001 113.25 84.8001V84.9689H113.206C113.089 84.9689 112.995 85.0005 112.924 85.0637C112.853 85.1269 112.817 85.2325 112.817 85.3806V86.0859H112.656V84.8232H112.817V85.0475ZM113.805 84.9596V85.7437C113.805 85.8207 113.819 85.8739 113.848 85.9032C113.878 85.9325 113.929 85.9472 114.003 85.9472H114.151V86.0859H113.978C113.864 86.0859 113.779 86.0597 113.724 86.0073C113.668 85.9533 113.64 85.8655 113.64 85.7437V84.9596H113.465V84.8232H113.64V84.5063H113.805V84.8232H114.151V84.9596H113.805ZM115.56 84.8232L114.81 86.6803H114.642L114.887 86.079L114.369 84.8232H114.547L114.977 85.9009L115.393 84.8232H115.56ZM117.094 84.4693C117.273 84.4693 117.426 84.5017 117.554 84.5665C117.682 84.6312 117.78 84.7245 117.848 84.8463C117.915 84.9681 117.949 85.1131 117.949 85.2811C117.949 85.4476 117.915 85.5918 117.848 85.7136C117.78 85.8339 117.682 85.9264 117.554 85.9911C117.426 86.0543 117.273 86.0859 117.094 86.0859H116.615V84.4693H117.094ZM117.094 85.9518C117.319 85.9518 117.49 85.8932 117.607 85.776C117.726 85.6573 117.785 85.4923 117.785 85.2811C117.785 85.0683 117.726 84.9026 117.607 84.7839C117.49 84.6636 117.319 84.6035 117.094 84.6035H116.777V85.9518H117.094ZM119.491 85.3898C119.491 85.4453 119.489 85.4877 119.486 85.517H118.439C118.443 85.6126 118.466 85.6943 118.508 85.7622C118.55 85.83 118.604 85.8816 118.672 85.9171C118.74 85.951 118.814 85.968 118.894 85.968C118.999 85.968 119.087 85.9425 119.158 85.8917C119.23 85.8408 119.278 85.7722 119.301 85.6858H119.472C119.442 85.8092 119.375 85.9102 119.274 85.9888C119.173 86.0659 119.047 86.1044 118.894 86.1044C118.776 86.1044 118.669 86.0782 118.575 86.0258C118.481 85.9718 118.407 85.8963 118.353 85.7992C118.301 85.7005 118.274 85.5856 118.274 85.4546C118.274 85.3235 118.301 85.2086 118.353 85.11C118.405 85.0113 118.479 84.9357 118.573 84.8833C118.667 84.8309 118.774 84.8047 118.894 84.8047C119.014 84.8047 119.119 84.8309 119.209 84.8833C119.3 84.9357 119.369 85.0067 119.417 85.0961C119.466 85.184 119.491 85.2819 119.491 85.3898ZM119.327 85.3852C119.328 85.2911 119.309 85.211 119.269 85.1447C119.23 85.0784 119.177 85.0283 119.109 84.9943C119.041 84.9604 118.967 84.9435 118.887 84.9435C118.767 84.9435 118.664 84.982 118.58 85.0591C118.495 85.1362 118.448 85.2449 118.439 85.3852H119.327ZM120.098 84.9596V85.7437C120.098 85.8207 120.113 85.8739 120.142 85.9032C120.171 85.9325 120.223 85.9472 120.297 85.9472H120.445V86.0859H120.272C120.157 86.0859 120.073 86.0597 120.017 86.0073C119.962 85.9533 119.934 85.8655 119.934 85.7437V84.9596H119.758V84.8232H119.934V84.5063H120.098V84.8232H120.445V84.9596H120.098ZM120.739 85.4523C120.739 85.3227 120.764 85.2094 120.815 85.1123C120.867 85.0136 120.939 84.9381 121.03 84.8856C121.122 84.8317 121.227 84.8047 121.342 84.8047C121.462 84.8047 121.566 84.8324 121.652 84.8879C121.74 84.9435 121.803 85.0144 121.842 85.1007V84.8232H122.004V86.0859H121.842V85.8061C121.802 85.8924 121.738 85.9641 121.65 86.0212C121.563 86.0767 121.46 86.1044 121.34 86.1044C121.226 86.1044 121.122 86.0775 121.03 86.0235C120.939 85.9695 120.867 85.8932 120.815 85.7945C120.764 85.6959 120.739 85.5818 120.739 85.4523ZM121.842 85.4546C121.842 85.3528 121.821 85.2634 121.779 85.1863C121.738 85.1092 121.681 85.0498 121.608 85.0082C121.537 84.9666 121.459 84.9458 121.372 84.9458C121.283 84.9458 121.203 84.9658 121.132 85.0059C121.061 85.046 121.005 85.1046 120.963 85.1817C120.923 85.2572 120.903 85.3474 120.903 85.4523C120.903 85.5556 120.923 85.6465 120.963 85.7252C121.005 85.8022 121.061 85.8616 121.132 85.9032C121.203 85.9433 121.283 85.9634 121.372 85.9634C121.459 85.9634 121.537 85.9425 121.608 85.9009C121.681 85.8593 121.738 85.7999 121.779 85.7228C121.821 85.6457 121.842 85.5563 121.842 85.4546ZM122.555 84.585C122.522 84.585 122.495 84.5734 122.471 84.5503C122.448 84.5272 122.437 84.4986 122.437 84.4647C122.437 84.4308 122.448 84.403 122.471 84.3815C122.495 84.3583 122.522 84.3468 122.555 84.3468C122.587 84.3468 122.615 84.3583 122.638 84.3815C122.661 84.403 122.673 84.4308 122.673 84.4647C122.673 84.4986 122.661 84.5272 122.638 84.5503C122.615 84.5734 122.587 84.585 122.555 84.585ZM122.636 84.8232V86.0859H122.474V84.8232H122.636ZM123.265 84.3745V86.0859H123.103V84.3745H123.265Z" fill="black"/>
<g clip-path="url(#clip0_0_74)">
<path d="M107.714 147.66V147.51H108.119V149.22H107.95V147.66H107.714ZM108.517 148.814V148.688L109.385 147.519H109.583V148.669H109.838V148.814H109.583V149.22H109.418V148.814H108.517ZM109.425 147.703L108.71 148.669H109.425V147.703ZM111.843 147.553V147.691H111.109V148.313H111.729V148.452H111.109V149.22H110.942V147.553H111.843ZM112.384 147.455V149.22H112.217V147.455H112.384ZM113.432 149.239C113.309 149.239 113.199 149.212 113.1 149.158C113.003 149.102 112.926 149.024 112.869 148.924C112.813 148.822 112.785 148.704 112.785 148.569C112.785 148.433 112.814 148.316 112.871 148.216C112.928 148.114 113.006 148.036 113.105 147.982C113.203 147.926 113.314 147.899 113.436 147.899C113.559 147.899 113.669 147.926 113.768 147.982C113.868 148.036 113.946 148.114 114.001 148.216C114.059 148.316 114.087 148.433 114.087 148.569C114.087 148.702 114.059 148.82 114.001 148.922C113.944 149.023 113.866 149.102 113.765 149.158C113.665 149.212 113.554 149.239 113.432 149.239ZM113.432 149.093C113.517 149.093 113.597 149.074 113.67 149.036C113.743 148.996 113.802 148.937 113.846 148.86C113.893 148.78 113.916 148.683 113.916 148.569C113.916 148.454 113.893 148.358 113.849 148.28C113.804 148.201 113.746 148.142 113.672 148.104C113.599 148.064 113.52 148.044 113.434 148.044C113.348 148.044 113.269 148.064 113.195 148.104C113.122 148.142 113.064 148.201 113.019 148.28C112.976 148.358 112.955 148.454 112.955 148.569C112.955 148.683 112.976 148.78 113.019 148.86C113.064 148.937 113.122 148.996 113.193 149.036C113.266 149.074 113.346 149.093 113.432 149.093ZM115.061 149.239C114.938 149.239 114.828 149.212 114.729 149.158C114.632 149.102 114.555 149.024 114.498 148.924C114.442 148.822 114.415 148.704 114.415 148.569C114.415 148.433 114.443 148.316 114.5 148.216C114.558 148.114 114.636 148.036 114.734 147.982C114.833 147.926 114.943 147.899 115.066 147.899C115.188 147.899 115.299 147.926 115.397 147.982C115.497 148.036 115.575 148.114 115.631 148.216C115.688 148.316 115.717 148.433 115.717 148.569C115.717 148.702 115.688 148.82 115.631 148.922C115.574 149.023 115.495 149.102 115.395 149.158C115.295 149.212 115.183 149.239 115.061 149.239ZM115.061 149.093C115.147 149.093 115.226 149.074 115.299 149.036C115.372 148.996 115.431 148.937 115.476 148.86C115.522 148.78 115.545 148.683 115.545 148.569C115.545 148.454 115.523 148.358 115.478 148.28C115.434 148.201 115.375 148.142 115.302 148.104C115.229 148.064 115.149 148.044 115.063 148.044C114.977 148.044 114.898 148.064 114.825 148.104C114.752 148.142 114.693 148.201 114.648 148.28C114.605 148.358 114.584 148.454 114.584 148.569C114.584 148.683 114.605 148.78 114.648 148.86C114.693 148.937 114.751 148.996 114.822 149.036C114.896 149.074 114.975 149.093 115.061 149.093ZM116.044 148.566C116.044 148.433 116.071 148.316 116.125 148.216C116.179 148.114 116.253 148.036 116.347 147.982C116.442 147.926 116.55 147.899 116.669 147.899C116.783 147.899 116.887 147.926 116.979 147.982C117.071 148.038 117.139 148.11 117.181 148.199V147.455H117.348V149.22H117.181V148.929C117.142 149.019 117.077 149.094 116.986 149.153C116.895 149.21 116.789 149.239 116.666 149.239C116.547 149.239 116.44 149.211 116.344 149.155C116.251 149.1 116.177 149.021 116.123 148.919C116.07 148.817 116.044 148.7 116.044 148.566ZM117.181 148.569C117.181 148.464 117.16 148.371 117.117 148.292C117.074 148.213 117.015 148.151 116.941 148.108C116.867 148.065 116.786 148.044 116.697 148.044C116.605 148.044 116.522 148.065 116.449 148.106C116.376 148.147 116.318 148.208 116.275 148.287C116.234 148.365 116.213 148.458 116.213 148.566C116.213 148.673 116.234 148.767 116.275 148.848C116.318 148.927 116.376 148.988 116.449 149.031C116.522 149.073 116.605 149.093 116.697 149.093C116.786 149.093 116.867 149.072 116.941 149.029C117.015 148.986 117.074 148.925 117.117 148.845C117.16 148.766 117.181 148.674 117.181 148.569ZM119.088 149.236C118.978 149.236 118.881 149.217 118.797 149.179C118.714 149.141 118.649 149.088 118.602 149.019C118.554 148.951 118.528 148.875 118.525 148.79H118.702C118.71 148.871 118.745 148.943 118.809 149.005C118.873 149.065 118.966 149.096 119.088 149.096C119.201 149.096 119.29 149.067 119.355 149.01C119.422 148.951 119.455 148.877 119.455 148.788C119.455 148.716 119.437 148.659 119.4 148.616C119.364 148.572 119.319 148.539 119.265 148.519C119.21 148.496 119.136 148.472 119.04 148.447C118.929 148.417 118.841 148.387 118.776 148.359C118.71 148.33 118.655 148.286 118.609 148.225C118.563 148.165 118.54 148.083 118.54 147.98C118.54 147.894 118.562 147.817 118.606 147.751C118.651 147.682 118.714 147.629 118.795 147.591C118.876 147.553 118.969 147.534 119.074 147.534C119.228 147.534 119.352 147.572 119.446 147.648C119.541 147.723 119.596 147.82 119.61 147.939H119.429C119.418 147.871 119.381 147.81 119.317 147.758C119.253 147.704 119.168 147.677 119.059 147.677C118.959 147.677 118.876 147.704 118.809 147.758C118.742 147.81 118.709 147.883 118.709 147.975C118.709 148.045 118.727 148.101 118.764 148.144C118.8 148.187 118.846 148.22 118.9 148.242C118.955 148.264 119.03 148.288 119.124 148.313C119.232 148.344 119.319 148.374 119.386 148.404C119.453 148.433 119.509 148.477 119.555 148.538C119.602 148.598 119.625 148.679 119.625 148.781C119.625 148.859 119.604 148.933 119.563 149.003C119.521 149.073 119.46 149.129 119.379 149.172C119.298 149.215 119.201 149.236 119.088 149.236ZM120.264 148.058V148.867C120.264 148.946 120.279 149.001 120.309 149.031C120.339 149.061 120.392 149.077 120.469 149.077H120.621V149.22H120.442C120.325 149.22 120.237 149.193 120.18 149.139C120.123 149.083 120.094 148.992 120.094 148.867V148.058H119.913V147.918H120.094V147.591H120.264V147.918H120.621V148.058H120.264ZM121.024 149.232C120.989 149.232 120.96 149.22 120.936 149.196C120.914 149.172 120.903 149.143 120.903 149.108C120.903 149.073 120.914 149.044 120.936 149.022C120.96 148.998 120.989 148.986 121.024 148.986C121.058 148.986 121.086 148.998 121.108 149.022C121.132 149.044 121.144 149.073 121.144 149.108C121.144 149.143 121.132 149.172 121.108 149.196C121.086 149.22 121.058 149.232 121.024 149.232Z" fill="black"/>
<path d="M107.397 150.238H107.335L106.767 149.372V150.238H106.705V149.272H106.767L107.335 150.135V149.272H107.397V150.238ZM108.357 149.814C108.357 149.847 108.356 149.871 108.354 149.888H107.707C107.709 149.955 107.724 150.012 107.751 150.058C107.779 150.104 107.815 150.138 107.86 150.161C107.905 150.184 107.954 150.196 108.008 150.196C108.081 150.196 108.143 150.178 108.193 150.142C108.242 150.105 108.273 150.055 108.286 149.993H108.351C108.336 150.069 108.299 150.131 108.238 150.179C108.177 150.226 108.101 150.249 108.008 150.249C107.938 150.249 107.875 150.234 107.82 150.202C107.765 150.171 107.722 150.127 107.691 150.069C107.659 150.01 107.644 149.941 107.644 149.863C107.644 149.785 107.659 149.717 107.689 149.659C107.72 149.601 107.764 149.557 107.819 149.527C107.874 149.495 107.937 149.48 108.008 149.48C108.079 149.48 108.142 149.495 108.194 149.527C108.247 149.557 108.288 149.598 108.315 149.649C108.343 149.7 108.357 149.755 108.357 149.814ZM108.295 149.837C108.297 149.771 108.285 149.715 108.259 149.669C108.233 149.623 108.198 149.589 108.153 149.567C108.107 149.544 108.059 149.532 108.006 149.532C107.954 149.532 107.905 149.544 107.86 149.567C107.816 149.589 107.78 149.623 107.751 149.669C107.724 149.715 107.709 149.771 107.707 149.837H108.295ZM109.581 149.489L109.345 150.238H109.286L109.047 149.575L108.807 150.238H108.748L108.512 149.489H108.577L108.778 150.168L109.018 149.489H109.077L109.316 150.165L109.517 149.489H109.581ZM110.653 150.249C110.563 150.249 110.483 150.229 110.411 150.187C110.34 150.145 110.283 150.086 110.243 150.011C110.203 149.935 110.182 149.85 110.182 149.756C110.182 149.66 110.203 149.575 110.243 149.5C110.283 149.425 110.34 149.367 110.411 149.325C110.483 149.283 110.563 149.262 110.653 149.262C110.742 149.262 110.822 149.283 110.894 149.325C110.966 149.367 111.022 149.425 111.062 149.5C111.103 149.575 111.123 149.66 111.123 149.756C111.123 149.85 111.103 149.935 111.062 150.011C111.022 150.086 110.966 150.145 110.894 150.187C110.822 150.229 110.742 150.249 110.653 150.249ZM110.653 150.194C110.729 150.194 110.798 150.176 110.859 150.14C110.921 150.105 110.969 150.053 111.004 149.987C111.04 149.921 111.058 149.844 111.058 149.756C111.058 149.666 111.04 149.589 111.004 149.523C110.969 149.456 110.921 149.405 110.859 149.369C110.798 149.334 110.729 149.316 110.653 149.316C110.576 149.316 110.507 149.334 110.446 149.369C110.384 149.405 110.335 149.456 110.3 149.523C110.264 149.589 110.246 149.666 110.246 149.756C110.246 149.844 110.264 149.921 110.3 149.987C110.335 150.053 110.384 150.105 110.446 150.14C110.507 150.176 110.576 150.194 110.653 150.194ZM111.43 149.644C111.448 149.589 111.481 149.547 111.528 149.518C111.575 149.489 111.635 149.474 111.707 149.474V149.539H111.686C111.613 149.539 111.552 149.56 111.503 149.603C111.454 149.644 111.43 149.712 111.43 149.807V150.238H111.368V149.489H111.43V149.644ZM111.97 149.218V150.238H111.908V149.218H111.97ZM112.929 149.814C112.929 149.847 112.928 149.871 112.926 149.888H112.279C112.281 149.955 112.296 150.012 112.323 150.058C112.351 150.104 112.387 150.138 112.432 150.161C112.477 150.184 112.527 150.196 112.58 150.196C112.654 150.196 112.715 150.178 112.765 150.142C112.814 150.105 112.846 150.055 112.859 149.993H112.923C112.909 150.069 112.871 150.131 112.81 150.179C112.75 150.226 112.673 150.249 112.58 150.249C112.51 150.249 112.448 150.234 112.392 150.202C112.337 150.171 112.294 150.127 112.263 150.069C112.232 150.01 112.216 149.941 112.216 149.863C112.216 149.785 112.231 149.717 112.261 149.659C112.293 149.601 112.336 149.557 112.391 149.527C112.446 149.495 112.509 149.48 112.58 149.48C112.652 149.48 112.714 149.495 112.766 149.527C112.82 149.557 112.86 149.598 112.888 149.649C112.915 149.7 112.929 149.755 112.929 149.814ZM112.867 149.837C112.87 149.771 112.858 149.715 112.831 149.669C112.805 149.623 112.77 149.589 112.725 149.567C112.68 149.544 112.631 149.532 112.579 149.532C112.526 149.532 112.477 149.544 112.432 149.567C112.388 149.589 112.352 149.623 112.323 149.669C112.296 149.715 112.281 149.771 112.279 149.837H112.867ZM113.135 149.863C113.135 149.786 113.15 149.718 113.181 149.66C113.212 149.603 113.255 149.558 113.309 149.527C113.364 149.495 113.427 149.48 113.497 149.48C113.576 149.48 113.643 149.499 113.698 149.538C113.753 149.576 113.792 149.626 113.814 149.685V149.489H113.876V150.238H113.814V150.041C113.792 150.102 113.753 150.152 113.697 150.191C113.641 150.23 113.575 150.249 113.497 150.249C113.427 150.249 113.364 150.234 113.309 150.202C113.255 150.17 113.212 150.125 113.181 150.067C113.15 150.008 113.135 149.94 113.135 149.863ZM113.814 149.863C113.814 149.798 113.8 149.74 113.772 149.691C113.746 149.64 113.709 149.602 113.662 149.575C113.615 149.547 113.563 149.534 113.505 149.534C113.444 149.534 113.391 149.547 113.345 149.574C113.299 149.599 113.263 149.637 113.237 149.687C113.212 149.736 113.199 149.795 113.199 149.863C113.199 149.931 113.212 149.99 113.237 150.04C113.263 150.089 113.299 150.127 113.345 150.154C113.392 150.181 113.445 150.194 113.505 150.194C113.563 150.194 113.615 150.181 113.662 150.154C113.71 150.127 113.747 150.088 113.774 150.038C113.8 149.988 113.814 149.929 113.814 149.863ZM114.497 149.474C114.586 149.474 114.659 149.502 114.715 149.557C114.771 149.611 114.799 149.692 114.799 149.8V150.238H114.739V149.804C114.739 149.715 114.716 149.647 114.671 149.6C114.626 149.552 114.565 149.528 114.488 149.528C114.407 149.528 114.342 149.554 114.293 149.605C114.245 149.657 114.221 149.733 114.221 149.834V150.238H114.159V149.489H114.221V149.648C114.243 149.592 114.277 149.549 114.326 149.52C114.376 149.489 114.433 149.474 114.497 149.474ZM115.326 150.249C115.242 150.249 115.173 150.231 115.12 150.194C115.068 150.157 115.038 150.105 115.032 150.037H115.095C115.1 150.086 115.122 150.124 115.162 150.153C115.202 150.181 115.257 150.196 115.326 150.196C115.383 150.196 115.428 150.181 115.461 150.153C115.495 150.123 115.512 150.088 115.512 150.045C115.512 150.016 115.503 149.992 115.484 149.973C115.467 149.954 115.445 149.939 115.418 149.929C115.391 149.919 115.355 149.908 115.309 149.896C115.254 149.882 115.209 149.867 115.175 149.854C115.141 149.839 115.112 149.817 115.088 149.789C115.065 149.76 115.053 149.722 115.053 149.674C115.053 149.639 115.063 149.607 115.084 149.578C115.105 149.547 115.135 149.523 115.173 149.506C115.21 149.489 115.253 149.48 115.301 149.48C115.379 149.48 115.442 149.5 115.49 149.539C115.538 149.578 115.565 149.631 115.568 149.7H115.506C115.504 149.651 115.484 149.61 115.448 149.579C115.413 149.548 115.363 149.532 115.299 149.532C115.246 149.532 115.202 149.546 115.167 149.574C115.132 149.601 115.115 149.635 115.115 149.674C115.115 149.709 115.124 149.738 115.144 149.76C115.164 149.781 115.188 149.797 115.217 149.809C115.246 149.82 115.285 149.832 115.333 149.845C115.385 149.859 115.427 149.873 115.458 149.887C115.49 149.899 115.517 149.919 115.539 149.945C115.561 149.969 115.572 150.003 115.572 150.045C115.572 150.084 115.562 150.119 115.541 150.15C115.52 150.181 115.49 150.206 115.452 150.223C115.415 150.241 115.373 150.249 115.326 150.249ZM115.86 150.093L115.731 150.447H115.684L115.789 150.093H115.86ZM116.582 150.186H116.942V150.238H116.52V149.27H116.582V150.186ZM117.689 149.99H117.23L117.137 150.238H117.07L117.426 149.292H117.495L117.849 150.238H117.781L117.689 149.99ZM117.67 149.938L117.46 149.374L117.249 149.938H117.67ZM119.055 149.309L118.669 150.238H118.605L118.997 149.313H118.421V149.259H119.055V149.309ZM119.258 149.743C119.258 149.584 119.281 149.462 119.327 149.376C119.373 149.29 119.458 149.247 119.581 149.247C119.703 149.247 119.787 149.29 119.833 149.376C119.879 149.462 119.902 149.584 119.902 149.743C119.902 149.904 119.879 150.028 119.833 150.116C119.787 150.202 119.703 150.245 119.581 150.245C119.458 150.245 119.373 150.202 119.327 150.116C119.281 150.028 119.258 149.904 119.258 149.743ZM119.841 149.743C119.841 149.651 119.835 149.574 119.821 149.51C119.808 149.447 119.782 149.397 119.744 149.36C119.706 149.322 119.652 149.303 119.581 149.303C119.51 149.303 119.455 149.322 119.417 149.36C119.379 149.397 119.353 149.447 119.339 149.51C119.327 149.574 119.32 149.651 119.32 149.743C119.32 149.837 119.327 149.916 119.339 149.98C119.353 150.044 119.379 150.094 119.417 150.132C119.455 150.17 119.51 150.189 119.581 150.189C119.652 150.189 119.706 150.17 119.744 150.132C119.782 150.094 119.808 150.044 119.821 149.98C119.835 149.916 119.841 149.837 119.841 149.743ZM120.085 149.314V149.258H120.289V150.238H120.227V149.314H120.085ZM120.536 150.193C120.709 150.073 120.845 149.958 120.944 149.847C121.045 149.735 121.095 149.629 121.095 149.527C121.095 149.46 121.077 149.405 121.041 149.363C121.006 149.32 120.948 149.299 120.868 149.299C120.788 149.299 120.727 149.323 120.685 149.372C120.643 149.421 120.619 149.485 120.613 149.565H120.553C120.559 149.464 120.59 149.386 120.646 149.329C120.703 149.273 120.777 149.245 120.868 149.245C120.952 149.245 121.021 149.269 121.074 149.316C121.128 149.363 121.155 149.432 121.155 149.525C121.155 149.64 121.102 149.756 120.997 149.873C120.892 149.99 120.772 150.093 120.637 150.182H121.187V150.234H120.536V150.193ZM121.38 150.193C121.553 150.073 121.689 149.958 121.788 149.847C121.888 149.735 121.939 149.629 121.939 149.527C121.939 149.46 121.921 149.405 121.885 149.363C121.85 149.32 121.792 149.299 121.712 149.299C121.632 149.299 121.571 149.323 121.529 149.372C121.487 149.421 121.463 149.485 121.457 149.565H121.397C121.403 149.464 121.434 149.386 121.49 149.329C121.546 149.273 121.62 149.245 121.712 149.245C121.796 149.245 121.865 149.269 121.918 149.316C121.972 149.363 121.999 149.432 121.999 149.525C121.999 149.64 121.946 149.756 121.841 149.873C121.736 149.99 121.616 150.093 121.481 150.182H122.031V150.234H121.38V150.193Z" fill="#B3B3B3"/>
</g>
<rect opacity="0.5" x="76.6035" y="72.2227" width="3.41116" height="89.543" fill="#E8E8E8"/>
<rect x="106.187" y="117.496" width="15.0648" height="15.9606" fill="white"/>
<path d="M104.407 100C104.782 100 105.086 100.491 105.086 101.096L105.086 107.837L113.481 100.009L113.481 100L113.486 100.004L113.49 100L113.49 100.009L128.488 114.102V133.405L118.845 133.405L118.846 120.377C118.846 120 118.484 119.69 118.022 119.653L117.928 119.649H109.053C108.578 119.649 108.187 119.935 108.14 120.302L108.135 120.377L108.135 133.405L98.3679 133.405V114.103L100.555 112.063L100.555 101.096C100.555 100.491 100.859 100 101.235 100H104.407Z" fill="#052DEA" stroke="#052DEA" stroke-width="3" stroke-linejoin="round"/>
<path d="M130.838 133.456H96.0102" stroke="#052DEA" stroke-width="3" stroke-linecap="round"/>
<path d="M128.099 113.73L130.828 116.302" stroke="#052DEA" stroke-width="3" stroke-linecap="round"/>
<path d="M98.7107 113.746L95.9813 116.317" stroke="#052DEA" stroke-width="3" stroke-linecap="round"/>
<path fill-rule="evenodd" clip-rule="evenodd" d="M141.724 67.8622H156.777V87.3824L149.251 89.6934L141.846 87.3824L141.724 67.8622Z" fill="white"/>
<path d="M141.724 78.4091V87.4178L144.311 88.1945V77.6191L141.724 78.4091Z" fill="#AE0000"/>
<path d="M149.25 76.1239L146.666 76.9073V88.9166L149.25 89.6933" fill="#AE0000"/>
<path d="M149.25 76.1239V89.6933L151.837 88.9166V76.9106L149.25 76.1239Z" fill="#E91C1C"/>
<path d="M154.195 88.2045L156.779 87.4278V78.4058L154.195 77.6191V88.2045Z" fill="#E91C1C"/>
<path fill-rule="evenodd" clip-rule="evenodd" d="M141.727 76.7347V67.4804L149.235 65.1934V74.4477L141.727 76.7347ZM145.501 72.1724L146.417 72.6537L146.261 71.1401L147.009 69.8123L145.976 69.8887L145.52 68.6074L145.047 70.1675L144.043 70.692L144.769 71.5716L144.597 73.1682L145.501 72.1724Z" fill="#031D9C"/>
<path fill-rule="evenodd" clip-rule="evenodd" d="M149.235 74.4477V65.1934L156.762 67.4804V76.7347L149.235 74.4477ZM153.02 72.2569L154.015 73.2726L153.827 71.593L154.628 70.6835L153.52 70.1358L153.02 68.5061L152.513 69.8537L151.374 69.774L152.2 71.1682L152.006 72.7614L153.02 72.2569Z" fill="#052DEA"/>
<path d="M142.176 86.9777V66.8749L149.236 64.6885L156.297 66.8749V86.9777L149.236 89.1702L142.176 86.9777Z" stroke="white"/>
<defs>
<clipPath id="clip0_0_74">
<rect width="33.7048" height="9.30283" fill="white" transform="translate(97.5391 143.219)"/>
</clipPath>
</defs>
</svg>
