<svg width="199" height="238" viewBox="0 0 199 238" fill="none" xmlns="http://www.w3.org/2000/svg">
<mask id="path-1-outside-1_0_47" maskUnits="userSpaceOnUse" x="67.7793" y="73" width="64" height="94" fill="black">
<rect fill="white" x="67.7793" y="73" width="64" height="94"/>
<path fill-rule="evenodd" clip-rule="evenodd" d="M129.424 105.61C129.424 88.7046 116.073 75 99.6034 75C94.0293 75 88.5668 76.6037 83.8357 79.6292C69.8571 88.5681 65.5847 107.447 74.293 121.795L99.6034 163.5L124.914 121.795C127.861 116.939 129.424 111.332 129.424 105.61ZM81.2695 105.468C81.2695 95.0742 89.4779 86.6484 99.6034 86.6484C109.729 86.6484 117.937 95.0742 117.937 105.468C117.937 115.862 109.729 124.288 99.6034 124.288C89.4779 124.288 81.2695 115.862 81.2695 105.468Z"/>
</mask>
<path fill-rule="evenodd" clip-rule="evenodd" d="M129.424 105.61C129.424 88.7046 116.073 75 99.6034 75C94.0293 75 88.5668 76.6037 83.8357 79.6292C69.8571 88.5681 65.5847 107.447 74.293 121.795L99.6034 163.5L124.914 121.795C127.861 116.939 129.424 111.332 129.424 105.61ZM81.2695 105.468C81.2695 95.0742 89.4779 86.6484 99.6034 86.6484C109.729 86.6484 117.937 95.0742 117.937 105.468C117.937 115.862 109.729 124.288 99.6034 124.288C89.4779 124.288 81.2695 115.862 81.2695 105.468Z" fill="#E91C1C"/>
<path d="M83.8357 79.6292L82.8908 78.1516V78.1516L83.8357 79.6292ZM74.293 121.795L75.7924 120.886L74.293 121.795ZM99.6034 163.5L98.1041 164.41L99.6034 166.88L101.103 164.41L99.6034 163.5ZM124.914 121.795L126.413 122.705L124.914 121.795ZM99.6034 76.7538C115.061 76.7538 127.67 89.6297 127.67 105.61H131.177C131.177 87.7795 117.084 73.2462 99.6034 73.2462V76.7538ZM84.7805 81.1067C89.2318 78.2603 94.3668 76.7538 99.6034 76.7538V73.2462C93.6918 73.2462 87.9018 74.9472 82.8908 78.1516L84.7805 81.1067ZM75.7924 120.886C67.5687 107.335 71.62 89.5226 84.7805 81.1067L82.8908 78.1516C68.0943 87.6137 63.6008 107.558 72.7937 122.705L75.7924 120.886ZM101.103 162.59L75.7924 120.886L72.7937 122.705L98.1041 164.41L101.103 162.59ZM123.414 120.886L98.1041 162.59L101.103 164.41L126.413 122.705L123.414 120.886ZM127.67 105.61C127.67 111.013 126.194 116.305 123.414 120.886L126.413 122.705C129.528 117.573 131.177 111.65 131.177 105.61H127.67ZM99.6034 84.8946C88.4663 84.8946 79.5157 94.1491 79.5157 105.468H83.0234C83.0234 95.9994 90.4895 88.4023 99.6034 88.4023V84.8946ZM119.691 105.468C119.691 94.1491 110.74 84.8946 99.6034 84.8946V88.4023C108.717 88.4023 116.183 95.9994 116.183 105.468H119.691ZM99.6034 126.041C110.74 126.041 119.691 116.787 119.691 105.468H116.183C116.183 114.937 108.717 122.534 99.6034 122.534V126.041ZM79.5157 105.468C79.5157 116.787 88.4663 126.041 99.6034 126.041V122.534C90.4895 122.534 83.0234 114.937 83.0234 105.468H79.5157Z" fill="#2B2B2A" mask="url(#path-1-outside-1_0_47)"/>
<ellipse cx="99.6014" cy="105.576" rx="24.3574" ry="25.0027" fill="#F9FAFA"/>
<mask id="mask0_0_47" style="mask-type:alpha" maskUnits="userSpaceOnUse" x="75" y="80" width="49" height="51">
<ellipse cx="99.6014" cy="105.576" rx="24.3574" ry="25.0027" fill="white"/>
</mask>
<g mask="url(#mask0_0_47)">
<path d="M73.634 93.3342H100.531V102.007V109.657H73.634V93.3342Z" fill="#E8E9ED"/>
<path d="M108.269 93.3342H127.428V109.657H108.269V93.3342Z" fill="#BBE2C6"/>
<path d="M95.0319 115.764H127.428V132.087H95.0319V115.764Z" fill="#BBE2C6"/>
<path d="M87.2811 71.8423H119.677V88.1651H87.2811L87.2811 71.8423Z" fill="#E8E9ED"/>
<path d="M53.2124 113.307H85.6084V129.63H53.2124V113.307Z" fill="#E8E9ED"/>
<path d="M58.0022 71.8423H90.3982V88.1651H58.0022V71.8423Z" fill="#EAEAEA"/>
<path d="M99.6027 78.7251C99.2761 79.9561 99.2761 83.4964 99.6027 89.3459C100.093 98.1201 110.179 96.9351 107.979 106.148C105.778 115.36 93.9446 111.378 92.9198 122.686C92.2367 130.224 94.301 135.224 99.1128 137.686" stroke="white" stroke-width="18.2848"/>
<path d="M99.6027 78.7251C99.2761 79.9561 99.2761 83.4964 99.6027 89.3459C100.093 98.1201 110.179 96.9351 107.979 106.148C105.778 115.36 93.9446 111.378 92.9198 122.686C92.2367 130.224 94.301 135.224 99.1128 137.686" stroke="#9CC0F9" stroke-width="10.4484"/>
</g>
</svg>
